<svg width="24" height="24" viewBox="0 0 24 24" fill="none" xmlns="http://www.w3.org/2000/svg">
<path d="M19 11V12C19 12.5523 18.5523 13 18 13H16.6172C16.246 12.9998 15.8821 12.8964 15.5664 12.7012C15.2506 12.5058 14.9951 12.2257 14.8291 11.8936V11.8926L13.3818 9H10.4141L8.70703 10.707C8.5195 10.8946 8.26522 11 8 11H7V15H8C8.33435 15 8.64657 15.1671 8.83203 15.4453L10.5352 18H14V16C14 15.4477 14.4477 15 15 15H18C18.5523 15 19 15.4477 19 16V17H20V11H19ZM22 17C22 17.5304 21.7891 18.039 21.4141 18.4141C21.039 18.7891 20.5304 19 20 19H18C17.4477 19 17 18.5523 17 18V17H16V18C16 18.5304 15.7891 19.039 15.4141 19.4141C15.039 19.7891 14.5304 20 14 20H10.5352C10.206 20 9.88202 19.9189 9.5918 19.7637C9.3016 19.6085 9.05378 19.3841 8.87109 19.1104V19.1094L7.46484 17H6C5.44772 17 5 16.5523 5 16V14H4V16C4 16.5523 3.55228 17 3 17C2.44772 17 2 16.5523 2 16V10C2 9.44772 2.44772 9 3 9C3.55228 9 4 9.44772 4 10V12H5V10L5.00488 9.89746C5.05621 9.39333 5.48232 9 6 9H7.58594L9.29297 7.29297L9.36621 7.22656C9.54417 7.08073 9.76791 7 10 7H11V6H10C9.44772 6 9 5.55228 9 5C9 4.44772 9.44772 4 10 4H14C14.5523 4 15 4.44772 15 5C15 5.55228 14.5523 6 14 6H13V7H13.3828C13.754 7.00025 14.1179 7.10359 14.4336 7.29883C14.7492 7.49404 15.0039 7.7736 15.1699 8.10547L16.6182 11H17V10C17 9.44772 17.4477 9 18 9H20C20.5304 9 21.039 9.21087 21.4141 9.58594C21.7891 9.96101 22 10.4696 22 11V17Z" fill="#0044FF"/>
</svg>
