<svg width="24" height="24" viewBox="0 0 24 24" fill="none" xmlns="http://www.w3.org/2000/svg">
<path d="M5 19H13V12H5V19ZM13 6C13 5.73478 12.8946 5.48051 12.707 5.29297C12.5429 5.12883 12.3276 5.02757 12.0986 5.00488L12 5H6C5.73478 5 5.4805 5.10543 5.29297 5.29297C5.10543 5.4805 5 5.73478 5 6V10H13V6ZM15 10C15.7957 10 16.5585 10.3163 17.1211 10.8789C17.6837 11.4415 18 12.2043 18 13V16C18 16.1326 18.0527 16.2597 18.1465 16.3535C18.2403 16.4473 18.3674 16.5 18.5 16.5C18.6326 16.5 18.7597 16.4473 18.8535 16.3535C18.9473 16.2597 19 16.1326 19 16V10C18.4696 10 17.961 9.78913 17.5859 9.41406C17.2109 9.03899 17 8.53043 17 8V7.41406L16.293 6.70703C15.9024 6.31651 15.9024 5.68349 16.293 5.29297C16.6835 4.90244 17.3165 4.90244 17.707 5.29297L20.707 8.29297C20.8946 8.4805 21 8.73478 21 9V16C21 16.663 20.7364 17.2987 20.2676 17.7676C19.7987 18.2364 19.163 18.5 18.5 18.5C17.837 18.5 17.2013 18.2364 16.7324 17.7676C16.2636 17.2987 16 16.663 16 16V13C16 12.7348 15.8946 12.4805 15.707 12.293C15.5195 12.1054 15.2652 12 15 12V19C15.5523 19 16 19.4477 16 20C16 20.5523 15.5523 21 15 21H3C2.44772 21 2 20.5523 2 20C2 19.4477 2.44772 19 3 19V6C3 5.20435 3.3163 4.44152 3.87891 3.87891C4.44152 3.3163 5.20435 3 6 3H12C12.7956 3 13.5585 3.3163 14.1211 3.87891C14.6837 4.44151 15 5.20435 15 6V10Z" fill="#0044FF"/>
</svg>
