<svg width="24" height="24" viewBox="0 0 24 24" fill="none" xmlns="http://www.w3.org/2000/svg">
<path d="M11.9999 3C13.9778 3 15.9111 3.58674 17.5556 4.68555C19.2 5.78434 20.4823 7.34567 21.2392 9.17285C21.9961 11.0001 22.1934 13.0114 21.8076 14.9512C21.4217 16.8908 20.4697 18.6728 19.0712 20.0713C18.6808 20.4617 18.0477 20.4615 17.6572 20.0713C17.2667 19.6808 17.2667 19.0478 17.6572 18.6572C18.776 17.5384 19.538 16.1124 19.8466 14.5605C20.1552 13.0088 19.996 11.4002 19.3906 9.93848C18.7851 8.47676 17.7598 7.22764 16.4443 6.34863C15.1287 5.46959 13.5822 5 11.9999 5C10.4177 5 8.8712 5.46959 7.55561 6.34863C6.24009 7.22764 5.21483 8.47676 4.60932 9.93848C4.00384 11.4002 3.84465 13.0088 4.15327 14.5605C4.46194 16.1124 5.22391 17.5384 6.34272 18.6572C6.73321 19.0478 6.73323 19.6808 6.34272 20.0713C5.95218 20.4615 5.31908 20.4617 4.92866 20.0713C3.53023 18.6728 2.57822 16.8908 2.19233 14.9512C1.80649 13.0114 2.00381 11.0001 2.76069 9.17285C3.51756 7.34567 4.79986 5.78434 6.44428 4.68555C8.08877 3.58674 10.0221 3 11.9999 3ZM15.2929 8.29297C15.6834 7.90244 16.3165 7.90244 16.707 8.29297C17.0975 8.6835 17.0975 9.31652 16.707 9.70703L12.707 13.707C12.3165 14.0975 11.6834 14.0975 11.2929 13.707C10.9024 13.3165 10.9024 12.6835 11.2929 12.293L15.2929 8.29297Z" fill="#0044FF"/>
</svg>
