<svg width="24" height="24" viewBox="0 0 24 24" fill="none" xmlns="http://www.w3.org/2000/svg">
<path d="M12.4922 2.01172C13.6373 2.06814 14.7657 2.32107 15.8271 2.76074C17.0404 3.26329 18.1427 4.00015 19.0713 4.92871C19.9998 5.85727 20.7367 6.95964 21.2393 8.17285C21.7418 9.38611 22 10.6868 22 12L21.9883 12.4922C21.9319 13.6373 21.6789 14.7657 21.2393 15.8271C20.7367 17.0404 19.9998 18.1427 19.0713 19.0713C18.1427 19.9998 17.0404 20.7367 15.8271 21.2393C14.7657 21.6789 13.6373 21.9319 12.4922 21.9883L12 22C10.6868 22 9.38611 21.7418 8.17285 21.2393C6.95964 20.7367 5.85727 19.9998 4.92871 19.0713C4.00015 18.1427 3.26329 17.0404 2.76074 15.8271C2.2582 14.6139 2 13.3132 2 12L2.01172 11.5078C2.06814 10.3627 2.32107 9.23431 2.76074 8.17285C3.26329 6.95964 4.00015 5.85727 4.92871 4.92871C5.85727 4.00015 6.95964 3.26329 8.17285 2.76074C9.38611 2.2582 10.6868 2 12 2L12.4922 2.01172ZM13.2285 15.8047C12.835 15.9318 12.4212 16 12 16C11.5785 16 11.1643 15.9319 10.7705 15.8047L8.40625 19.1445C8.58069 19.2323 8.75754 19.3157 8.93848 19.3906C9.90908 19.7927 10.9494 20 12 20L12.3936 19.9902C13.3097 19.9451 14.2123 19.7424 15.0615 19.3906C15.2422 19.3158 15.4186 19.2321 15.5928 19.1445L13.2285 15.8047ZM4.06543 13C4.15452 13.7069 4.33559 14.4005 4.60938 15.0615C5.01141 16.0321 5.59995 16.9144 6.34277 17.6572C6.47202 17.7865 6.60772 17.9086 6.74512 18.0283L9.08008 14.7314C8.61976 14.2394 8.29415 13.6436 8.12793 13H4.06543ZM15.8721 13C15.7058 13.6438 15.3795 14.2393 14.9189 14.7314L17.2539 18.0283C17.3915 17.9084 17.5278 17.7866 17.6572 17.6572C18.4 16.9144 18.9886 16.0321 19.3906 15.0615C19.6644 14.4005 19.8455 13.7069 19.9346 13H15.8721ZM12 10C11.4696 10 10.961 10.2109 10.5859 10.5859C10.2109 10.961 10 11.4696 10 12C10 12.5304 10.2109 13.039 10.5859 13.4141C10.961 13.7891 11.4696 14 12 14C12.5304 14 13.039 13.7891 13.4141 13.4141C13.7891 13.039 14 12.5304 14 12C14 11.4696 13.7891 10.961 13.4141 10.5859C13.039 10.2109 12.5304 10 12 10ZM14.9189 9.2666C15.38 9.75894 15.7057 10.3558 15.8721 11H19.9346C19.8455 10.2931 19.6644 9.59946 19.3906 8.93848C18.9886 7.96795 18.4 7.08559 17.6572 6.34277C17.5277 6.2132 17.3917 6.09075 17.2539 5.9707L14.9189 9.2666ZM6.74512 5.9707C6.60755 6.0906 6.47217 6.21338 6.34277 6.34277C5.59995 7.08559 5.01141 7.96795 4.60938 8.93848C4.33559 9.59946 4.15452 10.2931 4.06543 11H8.12793C8.29427 10.356 8.61925 9.75885 9.08008 9.2666L6.74512 5.9707ZM11.6064 4.00977C10.6903 4.05489 9.7877 4.25762 8.93848 4.60938C8.75768 4.68427 8.58057 4.76682 8.40625 4.85449L10.7705 8.19434C11.1642 8.06714 11.5786 8 12 8C12.4211 8 12.8351 8.06732 13.2285 8.19434L15.5928 4.85449C15.4187 4.76697 15.2421 4.68416 15.0615 4.60938C14.0909 4.20734 13.0506 4 12 4L11.6064 4.00977Z" fill="#0044FF"/>
</svg>
