<svg width="24" height="24" viewBox="0 0 24 24" fill="none" xmlns="http://www.w3.org/2000/svg">
<path d="M5.99512 17.9014C5.97243 17.6724 5.87117 17.4571 5.70703 17.293C5.54289 17.1288 5.32763 17.0276 5.09863 17.0049L5 17C4.73478 17 4.48051 17.1054 4.29297 17.293C4.10543 17.4805 4 17.7348 4 18C4 18.2652 4.10543 18.5195 4.29297 18.707C4.48051 18.8946 4.73478 19 5 19C5.26522 19 5.51949 18.8946 5.70703 18.707C5.89457 18.5195 6 18.2652 6 18L5.99512 17.9014ZM13 18C13 17.7348 12.8946 17.4805 12.707 17.293C12.5429 17.1288 12.3276 17.0276 12.0986 17.0049L12 17C11.7348 17 11.4805 17.1054 11.293 17.293C11.1054 17.4805 11 17.7348 11 18C11 18.2652 11.1054 18.5195 11.293 18.707C11.4805 18.8946 11.7348 19 12 19C12.2652 19 12.5195 18.8946 12.707 18.707C12.8946 18.5195 13 18.2652 13 18ZM5.99512 5.90137C5.97243 5.67237 5.87117 5.45711 5.70703 5.29297C5.54289 5.12883 5.32763 5.02757 5.09863 5.00488L5 5C4.73478 5 4.4805 5.10543 4.29297 5.29297C4.10543 5.4805 4 5.73478 4 6L4.00488 6.09863C4.02757 6.32763 4.12883 6.54289 4.29297 6.70703C4.4805 6.89457 4.73478 7 5 7L5.09863 6.99512C5.32763 6.97243 5.54289 6.87117 5.70703 6.70703C5.89457 6.5195 6 6.26522 6 6L5.99512 5.90137ZM13 6C13 5.73478 12.8946 5.48051 12.707 5.29297C12.5429 5.12883 12.3276 5.02757 12.0986 5.00488L12 5C11.7348 5 11.4805 5.10543 11.293 5.29297C11.1054 5.48051 11 5.73478 11 6C11 6.26522 11.1054 6.51949 11.293 6.70703C11.4805 6.89457 11.7348 7 12 7L12.0986 6.99512C12.3276 6.97243 12.5429 6.87117 12.707 6.70703C12.8946 6.51949 13 6.26522 13 6ZM20 6C20 5.73478 19.8946 5.48051 19.707 5.29297C19.5429 5.12883 19.3276 5.02757 19.0986 5.00488L19 5C18.7348 5 18.4805 5.10543 18.293 5.29297C18.1054 5.48051 18 5.73478 18 6C18 6.26522 18.1054 6.51949 18.293 6.70703C18.4805 6.89457 18.7348 7 19 7L19.0986 6.99512C19.3276 6.97243 19.5429 6.87117 19.707 6.70703C19.8946 6.51949 20 6.26522 20 6ZM22 6C22 6.79565 21.6837 7.55849 21.1211 8.12109C20.802 8.44016 20.4174 8.67642 20 8.82422V10C20 10.7957 19.6837 11.5585 19.1211 12.1211C18.5585 12.6837 17.7957 13 17 13H13V15.1748C13.4175 15.3226 13.8019 15.5598 14.1211 15.8789C14.6837 16.4415 15 17.2043 15 18C15 18.7957 14.6837 19.5585 14.1211 20.1211C13.5585 20.6837 12.7957 21 12 21C11.2043 21 10.4415 20.6837 9.87891 20.1211C9.3163 19.5585 9 18.7957 9 18C9 17.2043 9.3163 16.4415 9.87891 15.8789C10.1981 15.5598 10.5825 15.3226 11 15.1748V13H6V15.1748C6.41751 15.3226 6.80195 15.5598 7.12109 15.8789C7.6837 16.4415 8 17.2044 8 18L7.98535 18.2969C7.91709 18.9835 7.61329 19.6289 7.12109 20.1211C6.55849 20.6837 5.79565 21 5 21C4.20435 21 3.44151 20.6837 2.87891 20.1211C2.3163 19.5585 2 18.7956 2 18C2 17.2044 2.3163 16.4415 2.87891 15.8789C3.19805 15.5598 3.58249 15.3226 4 15.1748V8.82422C3.58261 8.67642 3.19797 8.44016 2.87891 8.12109C2.38671 7.6289 2.08291 6.98351 2.01465 6.29688L2 6C2 5.20435 2.3163 4.44152 2.87891 3.87891C3.44152 3.3163 4.20435 3 5 3L5.29688 3.01465C5.98351 3.08291 6.6289 3.38671 7.12109 3.87891C7.6837 4.44152 8 5.20435 8 6L7.98535 6.29688C7.91709 6.98351 7.61329 7.6289 7.12109 8.12109C6.80203 8.44016 6.41739 8.67642 6 8.82422V11H11V8.82422C10.5826 8.67642 10.198 8.44016 9.87891 8.12109C9.3163 7.55849 9 6.79565 9 6C9 5.20435 9.3163 4.44151 9.87891 3.87891C10.4415 3.3163 11.2044 3 12 3L12.2969 3.01465C12.9835 3.08291 13.6289 3.38671 14.1211 3.87891C14.6837 4.44151 15 5.20435 15 6C15 6.79565 14.6837 7.55849 14.1211 8.12109C13.802 8.44016 13.4174 8.67642 13 8.82422V11H17C17.2652 11 17.5195 10.8946 17.707 10.707C17.8946 10.5195 18 10.2652 18 10V8.82422C17.5826 8.67642 17.198 8.44016 16.8789 8.12109C16.3163 7.55849 16 6.79565 16 6C16 5.20435 16.3163 4.44151 16.8789 3.87891C17.4415 3.3163 18.2043 3 19 3L19.2969 3.01465C19.9835 3.08291 20.6289 3.38671 21.1211 3.87891C21.6837 4.44151 22 5.20435 22 6Z" fill="#0044FF"/>
</svg>
