<svg width="24" height="24" viewBox="0 0 24 24" fill="none" xmlns="http://www.w3.org/2000/svg">
<path d="M20 13C20 12.7348 19.8946 12.4805 19.707 12.293C19.5195 12.1054 19.2652 12 19 12H4V16H4.17578C4.32358 15.5826 4.55984 15.198 4.87891 14.8789C5.44151 14.3163 6.20435 14 7 14C7.79565 14 8.55849 14.3163 9.12109 14.8789C9.44016 15.198 9.67642 15.5826 9.82422 16H14.1758C14.3236 15.5826 14.5598 15.198 14.8789 14.8789C15.4415 14.3163 16.2043 14 17 14C17.7957 14 18.5585 14.3163 19.1211 14.8789C19.4402 15.198 19.6764 15.5826 19.8242 16H20V13ZM7 16C6.73478 16 6.48051 16.1054 6.29297 16.293C6.10543 16.4805 6 16.7348 6 17L6.00488 17.0986C6.02757 17.3276 6.12883 17.5429 6.29297 17.707C6.48051 17.8946 6.73478 18 7 18C7.26522 18 7.51949 17.8946 7.70703 17.707C7.89457 17.5195 8 17.2652 8 17C8 16.7348 7.89457 16.4805 7.70703 16.293C7.51949 16.1054 7.26522 16 7 16ZM17 16C16.7348 16 16.4805 16.1054 16.293 16.293C16.1054 16.4805 16 16.7348 16 17C16 17.2652 16.1054 17.5195 16.293 17.707C16.4805 17.8946 16.7348 18 17 18C17.2652 18 17.5195 17.8946 17.707 17.707C17.8946 17.5195 18 17.2652 18 17C18 16.7348 17.8946 16.4805 17.707 16.293C17.5195 16.1054 17.2652 16 17 16ZM13 10H15.9189L13.5186 7H13V10ZM4.47754 10H11V7H5.67676L4.47754 10ZM22 17C22 17.5523 21.5523 18 21 18H19.8242C19.6764 18.4174 19.4402 18.802 19.1211 19.1211C18.5585 19.6837 17.7957 20 17 20C16.2043 20 15.4415 19.6837 14.8789 19.1211C14.5598 18.802 14.3236 18.4174 14.1758 18H9.82422C9.67642 18.4174 9.44016 18.802 9.12109 19.1211C8.55849 19.6837 7.79565 20 7 20C6.20435 20 5.44151 19.6837 4.87891 19.1211C4.55984 18.802 4.32358 18.4174 4.17578 18H3C2.44772 18 2 17.5523 2 17V11C2 10.8729 2.02413 10.7469 2.07129 10.6289L4.07129 5.62891C4.22315 5.24925 4.5911 5 5 5H14C14.3038 5 14.5915 5.13778 14.7812 5.375L18.4814 10H19C19.7957 10 20.5585 10.3163 21.1211 10.8789C21.6837 11.4415 22 12.2043 22 13V17Z" fill="white"/>
</svg>
