<svg width="24" height="24" viewBox="0 0 24 24" fill="none" xmlns="http://www.w3.org/2000/svg">
<path d="M16.0195 18C16.5574 17.9951 17.0888 18.1177 17.5703 18.3584C18.0639 18.6052 18.4907 18.9686 18.8125 19.417C18.9449 19.6014 19.1202 19.7509 19.3232 19.8525C19.5265 19.9542 19.7523 20.0048 19.9795 20C19.9931 19.9997 20.0068 19.9997 20.0205 20C20.2477 20.0048 20.4735 19.9542 20.6767 19.8525C20.8798 19.7509 21.0551 19.6014 21.1875 19.417C21.5095 18.9684 22.1343 18.8656 22.583 19.1875C23.0316 19.5095 23.1344 20.1343 22.8125 20.583C22.4907 21.0314 22.0639 21.3948 21.5703 21.6416C21.0888 21.8823 20.5574 22.0039 20.0195 21.999L20.0205 22C20.0137 22.0001 20.0068 21.9989 20 21.999C19.9932 21.9989 19.9863 22.0001 19.9795 22V21.999C19.4419 22.0037 18.9109 21.8821 18.4297 21.6416C17.936 21.3948 17.5093 21.0314 17.1875 20.583C17.0551 20.3986 16.8798 20.2491 16.6767 20.1475C16.4735 20.0458 16.2477 19.9952 16.0205 20C16.0068 20.0003 15.9931 20.0003 15.9795 20C15.7523 19.9952 15.5265 20.0458 15.3232 20.1475C15.1202 20.2491 14.9449 20.3986 14.8125 20.583C14.4907 21.0314 14.0639 21.3948 13.5703 21.6416C13.0888 21.8823 12.5574 22.0039 12.0195 21.999L12.0205 22C12.0137 22.0001 12.0068 21.9989 12 21.999C11.9932 21.9989 11.9863 22.0001 11.9795 22V21.999C11.4419 22.0037 10.9109 21.8821 10.4297 21.6416C9.93603 21.3948 9.50931 21.0314 9.18748 20.583C9.05506 20.3986 8.87979 20.2491 8.67674 20.1475C8.47348 20.0458 8.2477 19.9952 8.02049 20C8.00682 20.0003 7.99314 20.0003 7.97947 20C7.75227 19.9952 7.52649 20.0458 7.32322 20.1475C7.12017 20.2491 6.9449 20.3986 6.81248 20.583C6.49066 21.0314 6.06393 21.3948 5.57029 21.6416C5.08882 21.8823 4.55738 22.0039 4.01951 21.999L4.02049 22C4.01366 22.0001 4.00681 21.9989 3.99998 21.999C3.99315 21.9989 3.9863 22.0001 3.97947 22V21.999C3.44194 22.0037 2.91085 21.8821 2.42967 21.6416C1.93603 21.3948 1.50931 21.0314 1.18748 20.583C0.865564 20.1343 0.968351 19.5095 1.41697 19.1875C1.86563 18.8656 2.49047 18.9684 2.81248 19.417C2.9449 19.6014 3.12017 19.7509 3.32322 19.8525C3.52649 19.9542 3.75227 20.0048 3.97947 20C3.99314 19.9997 4.00682 19.9997 4.02049 20C4.2477 20.0048 4.47348 19.9542 4.67674 19.8525C4.87979 19.7509 5.05506 19.6014 5.18748 19.417C5.50931 18.9686 5.93603 18.6052 6.42967 18.3584C6.91084 18.1179 7.44196 17.9953 7.97947 18H8.01951C8.55736 17.9951 9.08883 18.1177 9.57029 18.3584C10.0639 18.6052 10.4907 18.9686 10.8125 19.417C10.9449 19.6014 11.1202 19.7509 11.3232 19.8525C11.5265 19.9542 11.7523 20.0048 11.9795 20C11.9931 19.9997 12.0068 19.9997 12.0205 20C12.2477 20.0048 12.4735 19.9542 12.6767 19.8525C12.8798 19.7509 13.0551 19.6014 13.1875 19.417C13.5093 18.9686 13.936 18.6052 14.4297 18.3584C14.9108 18.1179 15.442 17.9953 15.9795 18H16.0195ZM6.99998 2C7.55227 2 7.99998 2.44772 7.99998 3V6H13C13.3343 6 13.6465 6.16711 13.832 6.44531L17.5351 12H21C21.3466 12 21.6684 12.1798 21.8506 12.4746C22.0326 12.7694 22.0495 13.1374 21.8945 13.4473L19.8945 17.4473C19.6475 17.9412 19.0467 18.1415 18.5527 17.8945C18.0587 17.6475 17.8585 17.0467 18.1054 16.5527L19.3818 14H4.21971L4.98045 17.8037C5.08875 18.3452 4.73772 18.8721 4.19627 18.9805C3.65477 19.0888 3.12791 18.7377 3.01951 18.1963L2.01951 13.1963C1.96077 12.9026 2.0367 12.5979 2.22654 12.3662C2.41648 12.1345 2.70039 12 2.99998 12H3.99998V7L4.00486 6.89746C4.0562 6.39333 4.4823 6 4.99998 6H5.99998V4C5.4477 4 4.99998 3.55228 4.99998 3C4.99998 2.44772 5.4477 2 5.99998 2H6.99998ZM5.99998 12H15.1318L12.4648 8H5.99998V12Z" fill="white"/>
</svg>
