<svg width="20" height="15" viewBox="0 0 20 15" fill="none" xmlns="http://www.w3.org/2000/svg">
<g clip-path="url(#clip0_6_2)">
<rect width="20" height="15" fill="white"/>
<path fill-rule="evenodd" clip-rule="evenodd" d="M0 0H20V15H0V0Z" fill="#F50100"/>
<path d="M11.1289 2.47656C11.7026 2.47656 11.9572 2.12269 12.2598 2.2998C12.5622 2.47668 12.9271 2.47656 12.8018 2.47656C12.6763 2.47656 12.2256 2.7334 12.5742 2.7334C12.9227 2.73321 13.3192 2.22023 13.3193 2.47656C13.3193 2.47656 13.4181 2.76609 13.1787 2.78809C13.1724 2.7887 12.0998 2.89406 12.3096 2.94141C12.3096 2.94141 12.5022 3.02057 12.6338 3.02539C12.6338 3.02539 12.6904 3.22574 12.3408 3.28125C12.3408 3.28125 11.3517 3.46459 11.3057 3.78223C11.2604 4.10008 10.9481 4.81722 11.3057 4.81738C11.6633 4.81738 11.8953 4.57207 11.8955 4.29688C11.8955 4.02154 11.9449 3.55585 12.2598 3.5332C12.2805 3.52623 13.0352 3.27234 13.1299 3.29004C13.2249 3.30832 13.0539 3.44531 13.3193 3.44531C13.5854 3.44479 14.3554 2.80624 14.4766 2.55273C14.5947 2.30637 14.7704 2.5406 14.7793 2.55273C14.7793 2.55273 14.8967 3.26251 14.2871 3.52246C13.6875 3.77767 13.3316 3.78215 13.3193 3.78223C13.3193 3.78223 12.9385 4.06245 13.1787 4.0625C13.419 4.0625 13.9324 4.16089 14.2871 3.97168C14.641 3.78288 14.7789 3.67719 14.7793 3.78223C14.7793 3.88803 14.7816 4.48242 14.373 4.48242H13.3193C13.1791 4.48242 12.8468 4.6822 13.3984 4.81738C13.9496 4.95242 14.1277 4.89599 14.373 4.81738C14.6186 4.73869 14.7793 4.69399 14.7793 4.81738C14.7784 4.94149 14.4424 5.40234 14.1533 5.40234C13.864 5.40231 13.5431 5.14564 13.3984 5.14551C13.2539 5.14551 13.1039 5.40219 13.1787 5.40234C13.2537 5.40234 13.5026 5.77344 13.8281 5.77344C14.1535 5.77338 14.349 5.65332 14.5645 5.65332C14.7795 5.65328 14.7793 5.60872 14.7793 5.77344C14.7793 5.93876 14.3496 6.12207 14.1533 6.12207C13.9571 6.12197 13.1319 5.64928 13.1299 5.77344C13.1299 5.89924 13.6485 6.57617 13.9678 6.57617H14.5645C14.7752 6.57641 14.6976 6.83898 14.6943 6.84961C14.6943 6.84961 14.4856 7.03508 14.2266 7.03516C13.9675 7.03516 13.7129 6.77344 13.5557 6.6748C13.3984 6.57619 13.1788 6.49992 13.1787 6.6748C13.1787 6.84979 13.6743 7.54859 14.0752 7.54883C14.4759 7.54883 14.7789 7.38805 14.7793 7.54883C14.7793 7.71015 14.593 8.06959 14.373 7.99023C14.1528 7.91077 13.4595 7.66172 13.3193 7.39746C13.1791 7.13313 12.9229 7.24598 13.0264 7.39746C13.13 7.54907 13.6743 8.33201 14.0752 8.40527C14.4761 8.47827 14.8648 8.45949 14.7793 8.63281C14.6937 8.80613 14.3394 9.04795 14.1533 8.97168C13.967 8.89507 13.3318 8.31205 13.1787 8.06836C13.0259 7.82489 12.6342 7.35842 12.6338 7.54883C12.6338 7.74009 12.4741 8.26247 12.8018 8.33398C13.1291 8.40545 13.3018 8.72014 13.1299 8.7207C12.9573 8.7207 12.3413 8.5733 12.3408 8.18262C12.3408 7.79163 12.0615 7.57189 12.0615 7.68164C12.0615 7.79154 12.0333 8.12181 12.1865 8.33398C12.34 8.54627 12.1228 8.71945 12.0615 8.63281C12.0002 8.54613 11.7383 8.14706 11.7373 8.06836C11.7373 7.99081 11.645 7.8079 11.5361 7.80762C11.4272 7.80762 11.4055 7.99779 11.6094 8.40527C11.8133 8.81277 12.3157 9.13867 12.4746 9.13867C12.6308 9.13875 12.4797 9.49208 12.4746 9.50391L13.5557 9.78418C13.5624 9.78069 13.9678 9.57111 13.9678 9.50391C13.9685 9.43596 14.1826 9.27166 14.373 9.27148C14.5637 9.27148 14.5793 9.50356 14.4766 9.50391C14.3736 9.50391 14.1833 9.68262 14.0752 9.68262C13.9669 9.68291 13.6367 9.91406 13.6367 9.91406H14.373C14.3704 9.91106 14.2594 9.78418 14.5645 9.78418C14.873 9.78426 15 9.91406 15 9.91406C14.9942 9.91744 14.652 10.1177 14.5645 10.1182C14.5087 10.1182 14.416 10.1437 14.2715 10.1465C14.2537 10.1351 14.2439 10.1372 14.2363 10.1465C14.1606 10.1456 14.0717 10.1406 13.9678 10.1182C13.6373 10.0469 14.2266 10.2666 14.2266 10.2666C14.2266 10.2666 14.1822 9.97727 14.373 10.2666C14.5638 10.5559 14.593 10.6455 14.373 10.6455C14.1534 10.6454 13.968 10.5788 13.9678 10.4229C13.9678 10.268 13.5627 10.1207 13.5557 10.1182L13.0264 10.4229C13.0317 10.4323 13.1197 10.5936 12.9629 10.6455C12.8016 10.6987 12.5748 10.6208 12.5742 10.5674C12.5742 10.5139 12.6274 10.2667 12.7646 10.2666C12.9019 10.2666 13.3193 10.0391 13.3193 10.0391L12.3096 9.73828C12.3009 9.74754 12.0251 10.0391 11.9336 10.0391C11.8402 10.0367 11.5723 9.30511 11.4072 9.13867C11.2419 8.97191 11.1376 8.62719 10.9463 8.76465C10.755 8.90214 10.6791 9.32586 10.9463 9.68262C11.2133 10.039 11.6752 10.3206 11.8047 10.3213C11.9336 10.3213 12.1865 10.3339 12.1865 10.4229C12.1863 10.5124 12.0736 10.8758 11.8047 10.7217C11.5355 10.5674 11.2479 10.3824 11.207 10.4229C11.1669 10.4647 11.3354 10.9219 11.5703 11.0312C11.8055 11.1405 12.002 10.9833 12.002 11.1758C12.0017 11.3682 11.8357 11.5821 11.5361 11.3789C11.2363 11.1754 11.0551 10.826 11.001 10.9609C10.9469 11.096 10.9694 11.6229 11.207 11.623C11.4445 11.623 11.609 11.5891 11.6094 11.6816C11.6094 11.7746 11.554 12.1707 11.3057 12.0127C11.0575 11.8547 10.8754 11.658 10.8311 11.5186C10.7867 11.3791 10.5222 11.5179 10.6055 11.7139C10.689 11.9099 10.892 12.3052 10.9463 12.3057C11.0004 12.3057 10.3164 13.5 10.3164 13.5L10.3125 12.0127L10.3086 13.5C10.3086 13.5 9.62455 12.3057 9.67871 12.3057C9.73301 12.3052 9.93603 11.9099 10.0195 11.7139C10.1028 11.5179 9.83832 11.3791 9.79395 11.5186C9.74958 11.658 9.56753 11.8547 9.31934 12.0127C9.07104 12.1707 9.01562 11.7746 9.01562 11.6816C9.01602 11.5891 9.18049 11.623 9.41797 11.623C9.65557 11.6229 9.67811 11.096 9.62402 10.9609C9.56987 10.826 9.38873 11.1754 9.08887 11.3789C8.78931 11.5821 8.62328 11.3682 8.62305 11.1758C8.62305 10.9833 8.81954 11.1405 9.05469 11.0312C9.28957 10.9219 9.45806 10.4647 9.41797 10.4229C9.37709 10.3824 9.0895 10.5674 8.82031 10.7217C8.55137 10.8758 8.43875 10.5124 8.43848 10.4229C8.43848 10.3339 8.69143 10.3213 8.82031 10.3213C8.94984 10.3206 9.41171 10.039 9.67871 9.68262C9.94591 9.32586 9.87001 8.90214 9.67871 8.76465C9.48743 8.62719 9.38309 8.97191 9.21777 9.13867C9.05265 9.30511 8.78477 10.0367 8.69141 10.0391C8.59993 10.0391 8.32413 9.74754 8.31543 9.73828L7.30566 10.0391C7.30566 10.0391 7.72311 10.2666 7.86035 10.2666C7.99756 10.2667 8.05078 10.5139 8.05078 10.5674C8.05021 10.6208 7.82345 10.6987 7.66211 10.6455C7.50529 10.5936 7.5933 10.4323 7.59863 10.4229L7.06934 10.1182C7.06229 10.1207 6.65723 10.268 6.65723 10.4229C6.65697 10.5788 6.47163 10.6454 6.25195 10.6455C6.03201 10.6455 6.06118 10.5559 6.25195 10.2666C6.44278 9.97727 6.39844 10.2666 6.39844 10.2666C6.39844 10.2666 6.98766 10.0469 6.65723 10.1182C6.55288 10.1406 6.46366 10.1457 6.3877 10.1465C6.37998 10.1375 6.37037 10.1348 6.35254 10.1465C6.20857 10.1436 6.11618 10.1182 6.06055 10.1182C5.97299 10.1177 5.63077 9.91744 5.625 9.91406C5.625 9.91406 5.75203 9.78426 6.06055 9.78418C6.36561 9.78418 6.25464 9.91106 6.25195 9.91406H6.98828C6.98828 9.91406 6.65812 9.68291 6.5498 9.68262C6.44171 9.68262 6.25142 9.50391 6.14844 9.50391C6.04571 9.50356 6.06127 9.27148 6.25195 9.27148C6.44238 9.27166 6.6565 9.43596 6.65723 9.50391C6.65723 9.57111 7.06257 9.78069 7.06934 9.78418L8.15039 9.50391C8.14529 9.49208 7.99424 9.13875 8.15039 9.13867C8.30928 9.13867 8.8117 8.81277 9.01562 8.40527C9.21954 7.99779 9.19785 7.80762 9.08887 7.80762C8.97999 7.8079 8.8877 7.99081 8.8877 8.06836C8.88666 8.14706 8.62479 8.54613 8.56348 8.63281C8.50218 8.71945 8.28502 8.54627 8.43848 8.33398C8.5917 8.12181 8.56351 7.79154 8.56348 7.68164C8.56348 7.57189 8.28418 7.79163 8.28418 8.18262C8.28375 8.5733 7.66771 8.7207 7.49512 8.7207C7.32324 8.72014 7.49585 8.40545 7.82324 8.33398C8.15095 8.26247 7.99121 7.74009 7.99121 7.54883C7.99076 7.35842 7.59905 7.82489 7.44629 8.06836C7.29316 8.31205 6.65795 8.89507 6.47168 8.97168C6.28562 9.04795 5.93127 8.80613 5.8457 8.63281C5.76019 8.45949 6.14887 8.47827 6.5498 8.40527C6.95066 8.33201 7.49505 7.54907 7.59863 7.39746C7.70213 7.24598 7.4459 7.13313 7.30566 7.39746C7.16549 7.66172 6.47222 7.91077 6.25195 7.99023C6.03199 8.06959 5.8457 7.71015 5.8457 7.54883C5.84611 7.38805 6.14914 7.54883 6.5498 7.54883C6.9507 7.54859 7.44629 6.84979 7.44629 6.6748C7.44621 6.49992 7.22657 6.57619 7.06934 6.6748C6.91207 6.77344 6.65753 7.03516 6.39844 7.03516C6.13942 7.03508 5.93066 6.84961 5.93066 6.84961C5.92743 6.83898 5.84977 6.57641 6.06055 6.57617H6.65723C6.97655 6.57617 7.49512 5.89924 7.49512 5.77344C7.49308 5.64928 6.66786 6.12197 6.47168 6.12207C6.27537 6.12207 5.8457 5.93876 5.8457 5.77344C5.8457 5.60872 5.84553 5.65328 6.06055 5.65332C6.27599 5.65332 6.47152 5.77338 6.79688 5.77344C7.12238 5.77344 7.37133 5.40234 7.44629 5.40234C7.52109 5.40219 7.3711 5.14551 7.22656 5.14551C7.08194 5.14564 6.76103 5.40231 6.47168 5.40234C6.18261 5.40234 5.84657 4.94149 5.8457 4.81738C5.8457 4.69399 6.00638 4.73869 6.25195 4.81738C6.49728 4.89599 6.6754 4.95242 7.22656 4.81738C7.77821 4.6822 7.4459 4.48242 7.30566 4.48242H6.25195C5.8434 4.48242 5.8457 3.88803 5.8457 3.78223C5.84608 3.67719 5.98398 3.78288 6.33789 3.97168C6.69263 4.16089 7.20597 4.0625 7.44629 4.0625C7.68646 4.06245 7.30566 3.78223 7.30566 3.78223C7.29341 3.78215 6.93746 3.77767 6.33789 3.52246C5.72829 3.26251 5.8457 2.55273 5.8457 2.55273C5.85461 2.5406 6.03029 2.30637 6.14844 2.55273C6.26964 2.80624 7.03955 3.44479 7.30566 3.44531C7.57106 3.44531 7.40013 3.30832 7.49512 3.29004C7.58977 3.27234 8.34455 3.52623 8.36523 3.5332C8.68011 3.55585 8.72949 4.02154 8.72949 4.29688C8.72969 4.57207 8.96168 4.81738 9.31934 4.81738C9.67694 4.81722 9.3646 4.10008 9.31934 3.78223C9.27328 3.46459 8.28418 3.28125 8.28418 3.28125C7.93463 3.22574 7.99121 3.02539 7.99121 3.02539C8.12278 3.02057 8.31543 2.94141 8.31543 2.94141C8.52517 2.89406 7.45256 2.7887 7.44629 2.78809C7.2069 2.76609 7.30566 2.47656 7.30566 2.47656C7.30582 2.22023 7.70225 2.73321 8.05078 2.7334C8.39943 2.7334 7.94874 2.47656 7.82324 2.47656C7.69791 2.47656 8.06279 2.47668 8.36523 2.2998C8.66779 2.12269 8.92236 2.47656 9.49609 2.47656C10.0694 2.47668 9.61433 3.0997 9.93555 3.52246C10.1629 3.82122 10.2698 3.87875 10.3125 3.8877C10.3552 3.87875 10.4621 3.82122 10.6895 3.52246C11.0107 3.0997 10.5556 2.47668 11.1289 2.47656Z" fill="#1A1A1A"/>
</g>
<defs>
<clipPath id="clip0_6_2">
<rect width="20" height="15" fill="white"/>
</clipPath>
</defs>
</svg>
