<svg width="16" height="16" viewBox="0 0 16 16" fill="none" xmlns="http://www.w3.org/2000/svg">
<g opacity="0.5">
<path d="M10.6862 7.80076C10.6571 6.80675 10.4104 5.8303 9.96228 4.94073C9.62907 4.27926 9.19072 3.67884 8.66671 3.16144V12.8379C9.19057 12.3205 9.62914 11.7206 9.96228 11.0592C10.4403 10.1103 10.6888 9.0625 10.6888 7.99998L10.6862 7.80076ZM2.67322 8.26235C2.7033 8.8731 2.83845 9.47485 3.07296 10.041C3.34098 10.688 3.73334 11.2763 4.22856 11.7715C4.59529 12.1382 5.01338 12.448 5.46814 12.6933C5.23645 12.3654 5.02875 12.0195 4.84705 11.6588C4.31113 10.5949 4.016 9.42711 3.98116 8.23826L3.97791 7.99998C3.97791 6.72918 4.27537 5.47607 4.84705 4.34113C5.02883 3.98026 5.23633 3.63401 5.46814 3.30597C5.01327 3.55132 4.59536 3.86169 4.22856 4.2285C3.73334 4.72371 3.34098 5.31194 3.07296 5.95896C2.80493 6.60603 2.66671 7.2996 2.66671 7.99998L2.67322 8.26235ZM5.31124 7.99998C5.31124 9.0625 5.55979 10.1103 6.0378 11.0592C6.37095 11.7206 6.8095 12.3205 7.33337 12.8379V3.16144C6.80936 3.67885 6.37102 4.27926 6.0378 4.94073C5.55979 5.88966 5.31124 6.93746 5.31124 7.99998ZM12.0189 8.23826C11.9841 9.42711 11.6889 10.5949 11.153 11.6588C10.9713 12.0196 10.7631 12.3653 10.5313 12.6933C10.9862 12.448 11.4047 12.1383 11.7715 11.7715C12.2667 11.2762 12.6591 10.688 12.9271 10.041C13.1616 9.47485 13.2968 8.8731 13.3269 8.26235L13.3334 7.99998C13.3334 7.2996 13.1951 6.60603 12.9271 5.95896C12.6591 5.31195 12.2667 4.72371 11.7715 4.2285C11.4046 3.86155 10.9864 3.55136 10.5313 3.30597C10.7632 3.6341 10.9712 3.98015 11.153 4.34113C11.7247 5.47607 12.0222 6.72919 12.0222 7.99998L12.0189 8.23826ZM14.6589 8.3281C14.6213 9.09149 14.4527 9.84377 14.1595 10.5514C13.8245 11.3602 13.3333 12.0951 12.7142 12.7142C12.0952 13.3332 11.3603 13.8245 10.5515 14.1595C9.89524 14.4313 9.20043 14.594 8.49418 14.6465C8.41284 14.6667 8.32927 14.6708 8.24744 14.6601L8.00004 14.6666C7.91724 14.6666 7.83459 14.6632 7.75199 14.6601C7.67016 14.6707 7.58657 14.6667 7.50525 14.6465C6.79922 14.5939 6.10464 14.4312 5.44861 14.1595C4.6398 13.8245 3.90489 13.3332 3.28585 12.7142C2.66681 12.0951 2.17557 11.3602 1.84054 10.5514C1.54742 9.84377 1.3788 9.09149 1.34119 8.3281L1.33337 7.99998C1.33337 7.1245 1.5055 6.25738 1.84054 5.44855C2.17557 4.63974 2.66681 3.90483 3.28585 3.28579C3.90489 2.66675 4.6398 2.17551 5.44861 1.84047C6.10464 1.56874 6.79922 1.40605 7.50525 1.3535C7.58657 1.33322 7.67016 1.32924 7.75199 1.33982C7.83459 1.33675 7.91724 1.33331 8.00004 1.33331L8.24744 1.33982C8.32927 1.32916 8.41284 1.3333 8.49418 1.3535C9.20043 1.406 9.89524 1.56865 10.5515 1.84047C11.3603 2.17551 12.0952 2.66675 12.7142 3.28579C13.3333 3.90483 13.8245 4.63974 14.1595 5.44855C14.4946 6.25738 14.6667 7.1245 14.6667 7.99998L14.6589 8.3281Z" fill="white"/>
</g>
</svg>
