<svg width="230" height="12" viewBox="0 0 230 12" fill="none" xmlns="http://www.w3.org/2000/svg">
<g clip-path="url(#clip0_1_892)">
<path d="M20.8125 0H29.0625V9.75C29.0625 10.9926 28.0551 12 26.8125 12H13.6875L20.8125 0Z" fill="white"/>
<path d="M13.3125 0H19.3125L12.1875 12H6.1875L13.3125 0Z" fill="white" fill-opacity="0.6"/>
<path d="M6.87657 0.734192C7.14683 0.27902 7.637 0 8.16636 0H11.8125L4.6875 12H0.1875L6.87657 0.734192Z" fill="white" fill-opacity="0.3"/>
</g>
<path d="M205.094 12V0H209.746L224.207 9.60059H225.259V0H227.661V12H223.006L208.545 2.40234H207.493V12H205.094Z" fill="white"/>
<path d="M176.343 12V0H200.343V2.40234H178.742V4.80176H200.343V7.20117H178.742V9.60059H200.343V12H176.343Z" fill="white"/>
<path d="M147.592 12V0H149.992L159.592 9.60059L169.19 0H171.592V12H169.19V3.60059L160.79 12H158.391L149.992 3.60059V12H147.592Z" fill="white"/>
<path d="M139.241 9.60059C139.571 9.60059 139.854 9.48438 140.09 9.25195C140.323 9.01562 140.439 8.73242 140.439 8.40234V3.60059C140.439 3.27051 140.323 2.9873 140.09 2.75098C139.854 2.51855 139.571 2.40234 139.241 2.40234H121.241V9.60059H139.241ZM118.841 12V0H140.439C141.103 0 141.669 0.235352 142.135 0.706055C142.606 1.1748 142.841 1.74023 142.841 2.40234V9.60059C142.841 10.2646 142.606 10.8301 142.135 11.2969C141.667 11.7656 141.101 12 140.439 12H118.841Z" fill="white"/>
<path d="M110.49 9.60059C110.82 9.60059 111.103 9.48438 111.34 9.25195C111.572 9.01562 111.688 8.73242 111.688 8.40234V3.60059C111.688 3.27051 111.572 2.9873 111.34 2.75098C111.103 2.51855 110.82 2.40234 110.49 2.40234H93.6882C93.3581 2.40234 93.0749 2.51855 92.8386 2.75098C92.6061 2.9873 92.4899 3.27051 92.4899 3.60059V8.40234C92.4899 8.73242 92.6061 9.01562 92.8386 9.25195C93.0749 9.48438 93.3581 9.60059 93.6882 9.60059H110.49ZM92.4899 12C91.8259 12 91.2604 11.7656 90.7936 11.2969C90.3249 10.8281 90.0905 10.2627 90.0905 9.60059V2.40234C90.0905 1.73828 90.3249 1.17285 90.7936 0.706055C91.2624 0.235352 91.8278 0 92.4899 0H111.688C112.352 0 112.918 0.235352 113.384 0.706055C113.855 1.1748 114.091 1.74023 114.091 2.40234V9.60059C114.091 10.2646 113.855 10.8301 113.384 11.2969C112.916 11.7656 112.35 12 111.688 12H92.4899Z" fill="white"/>
<path d="M81.7393 9.60059C82.0693 9.60059 82.3525 9.48438 82.5889 9.25195C82.8213 9.01562 82.9375 8.73242 82.9375 8.40234V3.60059C82.9375 3.27051 82.8213 2.9873 82.5889 2.75098C82.3525 2.51855 82.0693 2.40234 81.7393 2.40234H64.9375C64.6074 2.40234 64.3242 2.51855 64.0879 2.75098C63.8555 2.9873 63.7393 3.27051 63.7393 3.60059V8.40234C63.7393 8.73242 63.8555 9.01562 64.0879 9.25195C64.3242 9.48438 64.6074 9.60059 64.9375 9.60059H81.7393ZM63.7393 12C63.0752 12 62.5098 11.7656 62.043 11.2969C61.5742 10.8281 61.3398 10.2627 61.3398 9.60059V2.40234C61.3398 1.73828 61.5742 1.17285 62.043 0.706055C62.5117 0.235352 63.0771 0 63.7393 0H82.9375C83.6016 0 84.167 0.235352 84.6338 0.706055C85.1045 1.1748 85.3398 1.74023 85.3398 2.40234V9.60059C85.3398 10.2646 85.1045 10.8301 84.6338 11.2969C84.165 11.7656 83.5996 12 82.9375 12H63.7393Z" fill="white"/>
<path d="M34.9884 12C34.3243 12 33.7589 11.7656 33.2921 11.2969C32.8233 10.8281 32.589 10.2627 32.589 9.60059V2.40234C32.589 1.73828 32.8233 1.17285 33.2921 0.706055C33.7608 0.235352 34.3263 0 34.9884 0H54.1866C54.8507 0 55.4161 0.235352 55.8829 0.706055C56.3536 1.1748 56.589 1.74023 56.589 2.40234V3.60059H54.1866C54.1866 3.27051 54.0704 2.9873 53.838 2.75098C53.6017 2.51855 53.3185 2.40234 52.9884 2.40234H36.1866C35.8566 2.40234 35.5733 2.51855 35.337 2.75098C35.1046 2.9873 34.9884 3.27051 34.9884 3.60059V8.40234C34.9884 8.73242 35.1046 9.01562 35.337 9.25195C35.5733 9.48438 35.8566 9.60059 36.1866 9.60059H52.9884C53.3185 9.60059 53.6017 9.48438 53.838 9.25195C54.0704 9.01562 54.1866 8.73242 54.1866 8.40234V7.20117H42.1866V4.80176H56.589V9.60059C56.589 10.2646 56.3536 10.8301 55.8829 11.2969C55.4142 11.7656 54.8487 12 54.1866 12H34.9884Z" fill="white"/>
<defs>
<clipPath id="clip0_1_892">
<rect width="29.25" height="12" fill="white"/>
</clipPath>
</defs>
</svg>
