<svg width="24" height="24" viewBox="0 0 24 24" fill="none" xmlns="http://www.w3.org/2000/svg">
<path d="M16.0196 18C16.5574 17.9951 17.0889 18.1177 17.5704 18.3584C18.064 18.6052 18.4907 18.9686 18.8125 19.417C18.945 19.6014 19.1202 19.7509 19.3233 19.8525C19.5265 19.9542 19.7523 20.0048 19.9795 20C19.9932 19.9997 20.0069 19.9997 20.0205 20C20.2478 20.0048 20.4735 19.9542 20.6768 19.8525C20.8799 19.7509 21.0551 19.6014 21.1875 19.417C21.5096 18.9684 22.1344 18.8656 22.583 19.1875C23.0317 19.5095 23.1345 20.1343 22.8125 20.583C22.4907 21.0314 22.064 21.3948 21.5704 21.6416C21.0889 21.8823 20.5574 22.0039 20.0196 21.999L20.0205 22C20.0137 22.0001 20.0069 21.9989 20 21.999C19.9932 21.9989 19.9864 22.0001 19.9795 22V21.999C19.442 22.0037 18.9109 21.8821 18.4297 21.6416C17.9361 21.3948 17.5094 21.0314 17.1875 20.583C17.0551 20.3986 16.8798 20.2491 16.6768 20.1475C16.4735 20.0458 16.2478 19.9952 16.0205 20C16.0069 20.0003 15.9932 20.0003 15.9795 20C15.7523 19.9952 15.5265 20.0458 15.3233 20.1475C15.1202 20.2491 14.945 20.3986 14.8125 20.583C14.4907 21.0314 14.064 21.3948 13.5704 21.6416C13.0889 21.8823 12.5574 22.0039 12.0196 21.999L12.0205 22C12.0137 22.0001 12.0069 21.9989 12 21.999C11.9932 21.9989 11.9864 22.0001 11.9795 22V21.999C11.442 22.0037 10.9109 21.8821 10.4297 21.6416C9.93609 21.3948 9.50937 21.0314 9.18754 20.583C9.05512 20.3986 8.87985 20.2491 8.6768 20.1475C8.47354 20.0458 8.24776 19.9952 8.02055 20C8.00688 20.0003 7.9932 20.0003 7.97953 20C7.75233 19.9952 7.52655 20.0458 7.32328 20.1475C7.12023 20.2491 6.94496 20.3986 6.81254 20.583C6.49072 21.0314 6.064 21.3948 5.57035 21.6416C5.08888 21.8823 4.55744 22.0039 4.01957 21.999L4.02055 22C4.01372 22.0001 4.00687 21.9989 4.00004 21.999C3.99321 21.9989 3.98636 22.0001 3.97953 22V21.999C3.442 22.0037 2.91091 21.8821 2.42973 21.6416C1.93609 21.3948 1.50937 21.0314 1.18754 20.583C0.865625 20.1343 0.968412 19.5095 1.41703 19.1875C1.86569 18.8656 2.49053 18.9684 2.81254 19.417C2.94496 19.6014 3.12023 19.7509 3.32328 19.8525C3.52655 19.9542 3.75233 20.0048 3.97953 20C3.9932 19.9997 4.00688 19.9997 4.02055 20C4.24776 20.0048 4.47354 19.9542 4.6768 19.8525C4.87985 19.7509 5.05512 19.6014 5.18754 19.417C5.50937 18.9686 5.93609 18.6052 6.42973 18.3584C6.9109 18.1179 7.44202 17.9953 7.97953 18H8.01957C8.55742 17.9951 9.08889 18.1177 9.57035 18.3584C10.064 18.6052 10.4907 18.9686 10.8125 19.417C10.945 19.6014 11.1202 19.7509 11.3233 19.8525C11.5265 19.9542 11.7523 20.0048 11.9795 20C11.9932 19.9997 12.0069 19.9997 12.0205 20C12.2478 20.0048 12.4735 19.9542 12.6768 19.8525C12.8799 19.7509 13.0551 19.6014 13.1875 19.417C13.5094 18.9686 13.9361 18.6052 14.4297 18.3584C14.9109 18.1179 15.442 17.9953 15.9795 18H16.0196ZM7.00004 2C7.55233 2 8.00004 2.44772 8.00004 3V6H13C13.3344 6 13.6466 6.16711 13.8321 6.44531L17.5352 12H21C21.3466 12 21.6684 12.1798 21.8506 12.4746C22.0327 12.7694 22.0495 13.1374 21.8946 13.4473L19.8946 17.4473C19.6476 17.9412 19.0468 18.1415 18.5528 17.8945C18.0588 17.6475 17.8585 17.0467 18.1055 16.5527L19.3819 14H4.21977L4.98051 17.8037C5.08881 18.3452 4.73778 18.8721 4.19633 18.9805C3.65483 19.0888 3.12797 18.7377 3.01957 18.1963L2.01957 13.1963C1.96083 12.9026 2.03677 12.5979 2.2266 12.3662C2.41654 12.1345 2.70045 12 3.00004 12H4.00004V7L4.00492 6.89746C4.05626 6.39333 4.48237 6 5.00004 6H6.00004V4C5.44776 4 5.00004 3.55228 5.00004 3C5.00004 2.44772 5.44776 2 6.00004 2H7.00004ZM6.00004 12H15.1319L12.4649 8H6.00004V12Z" fill="white"/>
</svg>
