<svg width="20" height="15" viewBox="0 0 20 15" fill="none" xmlns="http://www.w3.org/2000/svg">
<path d="M18 8C18 7.73478 17.8946 7.48051 17.707 7.29297C17.5195 7.10543 17.2652 7 17 7H2V11H2.17578C2.32358 10.5826 2.55984 10.198 2.87891 9.87891C3.44151 9.3163 4.20435 9 5 9C5.79565 9 6.55849 9.3163 7.12109 9.87891C7.44016 10.198 7.67642 10.5826 7.82422 11H12.1758C12.3236 10.5826 12.5598 10.198 12.8789 9.87891C13.4415 9.3163 14.2043 9 15 9C15.7957 9 16.5585 9.3163 17.1211 9.87891C17.4402 10.198 17.6764 10.5826 17.8242 11H18V8ZM5 11C4.73478 11 4.48051 11.1054 4.29297 11.293C4.10543 11.4805 4 11.7348 4 12L4.00488 12.0986C4.02757 12.3276 4.12883 12.5429 4.29297 12.707C4.48051 12.8946 4.73478 13 5 13C5.26522 13 5.51949 12.8946 5.70703 12.707C5.89457 12.5195 6 12.2652 6 12C6 11.7348 5.89457 11.4805 5.70703 11.293C5.51949 11.1054 5.26522 11 5 11ZM15 11C14.7348 11 14.4805 11.1054 14.293 11.293C14.1054 11.4805 14 11.7348 14 12C14 12.2652 14.1054 12.5195 14.293 12.707C14.4805 12.8946 14.7348 13 15 13C15.2652 13 15.5195 12.8946 15.707 12.707C15.8946 12.5195 16 12.2652 16 12C16 11.7348 15.8946 11.4805 15.707 11.293C15.5195 11.1054 15.2652 11 15 11ZM11 5H13.9189L11.5186 2H11V5ZM2.47754 5H9V2H3.67676L2.47754 5ZM20 12C20 12.5523 19.5523 13 19 13H17.8242C17.6764 13.4174 17.4402 13.802 17.1211 14.1211C16.5585 14.6837 15.7957 15 15 15C14.2043 15 13.4415 14.6837 12.8789 14.1211C12.5598 13.802 12.3236 13.4174 12.1758 13H7.82422C7.67642 13.4174 7.44016 13.802 7.12109 14.1211C6.55849 14.6837 5.79565 15 5 15C4.20435 15 3.44151 14.6837 2.87891 14.1211C2.55984 13.802 2.32358 13.4174 2.17578 13H1C0.447715 13 0 12.5523 0 12V6C0 5.8729 0.0241295 5.74693 0.0712891 5.62891L2.07129 0.628906C2.22315 0.249248 2.5911 0 3 0H12C12.3038 0 12.5915 0.137785 12.7812 0.375L16.4814 5H17C17.7957 5 18.5585 5.3163 19.1211 5.87891C19.6837 6.44151 20 7.20435 20 8V12Z" fill="white"/>
</svg>
