<svg width="24" height="24" viewBox="0 0 24 24" fill="none" xmlns="http://www.w3.org/2000/svg">
<path d="M8 8.52075C8 8.01157 8.10005 7.50679 8.29492 7.03638C8.48979 6.56602 8.77571 6.13854 9.13574 5.77856L11.7793 3.13599L11.917 3.00415C12.2464 2.70567 12.6256 2.46565 13.0371 2.29517C13.5074 2.10041 14.0115 2.00024 14.5205 2.00024C15.0295 2.00025 15.5336 2.10041 16.0039 2.29517C16.4742 2.49 16.9017 2.77602 17.2617 3.13599L20.8643 6.73755C21.2243 7.09752 21.5102 7.52501 21.7051 7.99536C21.9 8.46578 22 8.97055 22 9.47974C22 9.98873 21.8998 10.4929 21.7051 10.9631C21.5102 11.4335 21.2242 11.861 20.8643 12.2209L18.2207 14.8645C17.8608 15.2244 17.4331 15.5095 16.9629 15.7043C16.4925 15.8992 15.9886 16.0002 15.4795 16.0002C14.9704 16.0002 14.4664 15.8992 13.9961 15.7043C13.7035 15.5831 13.4273 15.427 13.1738 15.2395L7.29297 21.1213C6.79456 21.6196 6.13663 21.9268 5.43457 21.9885C5.42063 21.9897 5.40656 21.9908 5.39258 21.9915L5.21777 21.9993C5.20256 22 5.1871 22.0002 5.17188 22.0002H4C3.51013 22.0002 3.03697 21.8199 2.6709 21.4944C2.30497 21.1689 2.07097 20.72 2.01367 20.2336C2.01146 20.2148 2.00993 20.1959 2.00879 20.177L2.00195 20.0598C2.00077 20.04 2 20.0201 2 20.0002V18.8274L2.01172 18.5647C2.06553 17.9551 2.30447 17.3739 2.7002 16.9016L2.72949 16.8684L2.84863 16.7385C2.85843 16.7278 2.86865 16.7175 2.87891 16.7073L3.29297 16.2932L3.36621 16.2268C3.54418 16.0809 3.76787 16.0002 4 16.0002H5V15.0002L5.00488 14.8977C5.05613 14.3935 5.48226 14.0002 6 14.0002H7V13.0002C7 12.7351 7.10549 12.4807 7.29297 12.2932L8.75879 10.8254C8.57173 10.5724 8.41591 10.2962 8.29492 10.0042C8.10016 9.53389 8.00003 9.02975 8 8.52075ZM15.0098 8.00024C15.5621 8.00024 16.0098 8.44796 16.0098 9.00024C16.0096 9.55242 15.562 10.0002 15.0098 10.0002H15C14.4478 10.0002 14.0001 9.55242 14 9.00024C14 8.44796 14.4477 8.00024 15 8.00024H15.0098ZM10 8.52075C10 8.76714 10.0493 9.01089 10.1436 9.23853C10.2379 9.46622 10.3755 9.67363 10.5498 9.8479L10.8516 10.1487C11.2418 10.5391 11.2416 11.1722 10.8516 11.5627L9 13.4143V15.0002C8.9999 15.5524 8.55222 16.0002 8 16.0002H7V17.0002C6.9999 17.5524 6.55222 18.0002 6 18.0002H4.41406L4.30273 18.1106L4.22754 18.1926C4.08027 18.3715 4.00006 18.5965 4 18.8284V19.9739L4.00195 20.0002H5.14746L5.27148 19.9944C5.50088 19.9714 5.71565 19.8704 5.87891 19.7073L12.4365 13.1487C12.827 12.7582 13.461 12.7582 13.8516 13.1487L14.1523 13.4495V13.4504C14.3265 13.6245 14.5333 13.7624 14.7607 13.8567C14.9885 13.951 15.233 14.0002 15.4795 14.0002C15.726 14.0002 15.9705 13.951 16.1982 13.8567C16.4257 13.7624 16.6325 13.6245 16.8066 13.4504V13.4495L19.4502 10.8069C19.6245 10.6326 19.7621 10.4252 19.8564 10.1975C19.9507 9.96987 20 9.72612 20 9.47974C20 9.23322 19.9508 8.98873 19.8564 8.76099C19.7622 8.53351 19.6243 8.32674 19.4502 8.15259L15.8477 4.55005C15.6734 4.37584 15.4669 4.23714 15.2393 4.14282C15.0115 4.04848 14.767 4.00025 14.5205 4.00024C14.274 4.00024 14.0295 4.04848 13.8018 4.14282C13.5741 4.23714 13.3676 4.37584 13.1934 4.55005L10.5498 7.1936C10.3757 7.36775 10.2378 7.57452 10.1436 7.802C10.0492 8.02975 10 8.27424 10 8.52075Z" fill="white"/>
</svg>
