<svg width="24" height="24" viewBox="0 0 24 24" fill="none" xmlns="http://www.w3.org/2000/svg">
<path d="M19.2959 14.0098C19.9829 14.0607 20.6471 14.2892 21.2227 14.6738C21.8803 15.1134 22.3926 15.738 22.6953 16.4688C22.998 17.1997 23.0773 18.0043 22.9229 18.7803C22.7685 19.5557 22.387 20.267 21.8281 20.8262C21.432 21.2234 20.6935 21.8761 19.6465 22.7627C19.2752 23.0771 18.7315 23.0788 18.3584 22.7666C17.3601 21.9307 16.6229 21.2803 16.1709 20.8272V20.8262C15.6123 20.2671 15.2315 19.5554 15.0771 18.7803C14.9227 18.0043 15.002 17.1997 15.3047 16.4688C15.6074 15.738 16.1197 15.1134 16.7773 14.6738C17.4352 14.2343 18.2088 13.999 19 13.999L19.2959 14.0098ZM18.8525 16.0049C18.5089 16.0303 18.1765 16.1436 17.8887 16.3359C17.5598 16.5557 17.3037 16.8689 17.1523 17.2344C17.0011 17.5998 16.9609 18.0018 17.0381 18.3897C17.1057 18.7292 17.2603 19.0448 17.4854 19.3057L17.5859 19.4141L17.5869 19.415C17.881 19.7099 18.3475 20.1314 18.9961 20.6865C19.689 20.0906 20.1576 19.6712 20.4131 19.415L20.4141 19.4141C20.6938 19.1344 20.8847 18.7776 20.9619 18.3897C21.0391 18.0018 20.9989 17.5998 20.8477 17.2344C20.6963 16.8689 20.4402 16.5557 20.1113 16.3359C19.7824 16.1162 19.3955 15.999 19 15.999L18.8525 16.0049ZM18 18.0098V18C18 17.4477 18.4477 17 19 17C19.5523 17 20 17.4477 20 18V18.0098C20 18.5621 19.5523 19.0098 19 19.0098C18.4477 19.0098 18 18.5621 18 18.0098ZM4 7.61817V18.3818L8 16.3818V5.61817L4 7.61817ZM20 11V5.61817L16 7.61817V12C16 12.5523 15.5523 13 15 13C14.4477 13 14 12.5523 14 12V7.61817L10 5.61817V16.3818L12.4473 17.6055C12.9412 17.8525 13.1415 18.4533 12.8945 18.9473C12.6475 19.4413 12.0467 19.6415 11.5527 19.3945L9 18.1182L3.44727 20.8945C3.13735 21.0495 2.76939 21.0327 2.47461 20.8506C2.17979 20.6684 2 20.3466 2 20V7.00001L2.00977 6.85938C2.05546 6.5372 2.25641 6.25364 2.55273 6.10548L8.55273 3.10548L8.66016 3.05958C8.91613 2.96706 9.20081 2.98225 9.44727 3.10548L15 5.88184L20.5527 3.10548C20.8626 2.95052 21.2306 2.96734 21.5254 3.14942C21.8202 3.33163 22 3.65343 22 4.00001V11C22 11.5523 21.5523 12 21 12C20.4477 12 20 11.5523 20 11Z" fill="#0044FF"/>
</svg>
